# xmcd
#
# Track frame offsets: 
#        150
#        11882
#        21582
#        35322
#        50220
#        63432
#        75540
#        89385
#        106865
#        121235
#        139145
#        150155
#        167435
#        179720
#        190317
#        204620
#        219942
#        230725
#        243372
#        256295
#
# Disc length: 3582 seconds
#
# Revision: 0
# Processed by: cddbd v1.5.1PL2 Copyright (c) Steve Scherf et al.
# Submitted via: ExactAudioCopy v0.95b3
#
DISCID=140dfc14
DTITLE=Bjøro Håland - All the best
DYEAR=1900
DGENRE=Country
TTITLE0=Blue Canadian rockies
TTITLE1=Oksedragarsong
TTITLE2=Old flames
TTITLE3=Storms never last
TTITLE4=Body language
TTITLE5=I Cant stop loving you
TTITLE6=Nickels and dimes
TTITLE7=I Love norwegian country
TTITLE8=Turning memories on the radio
TTITLE9=Hei gamle landevei
TTITLE10=Some broken hearts
TTITLE11=Seven spanish angels
TTITLE12=Gi meg tid
TTITLE13=Georgia Boy
TTITLE14=What I didnt do
TTITLE15=Lykkejeger
TTITLE16=Am I that easy to forget
TTITLE17=Love or something like it
TTITLE18=The loving machine
TTITLE19=The gulf of mexico
EXTD=
EXTT0=
EXTT1=
EXTT2=
EXTT3=
EXTT4=
EXTT5=
EXTT6=
EXTT7=
EXTT8=
EXTT9=
EXTT10=
EXTT11=
EXTT12=
EXTT13=
EXTT14=
EXTT15=
EXTT16=
EXTT17=
EXTT18=
EXTT19=
PLAYORDER=
